<?xml version="1.0" encoding="UTF-8"?><svg id="stroke" xmlns="http://www.w3.org/2000/svg" viewBox="0 0 16 16"><line x1="2.5" y1="1.5" x2="13.5" y2="1.5" fill="none" stroke="#2d3741" stroke-linecap="square" stroke-linejoin="round" stroke-width="1.2"/><line x1="2.5" y1="14.5" x2="13.5" y2="14.5" fill="none" stroke="#2d3741" stroke-linecap="square" stroke-linejoin="round" stroke-width="1.2"/><path d="M3.5,14.5v-2c0-1.27,.67-2.38,1.69-2.99h0c.49-.32,.81-.88,.81-1.51,0-.63-.32-1.18-.81-1.51h0c-1.01-.61-1.69-1.73-1.69-2.99V1.5" fill="none" stroke="#2d3741" stroke-linecap="square" stroke-linejoin="round" stroke-width="1.2"/><path d="M12.5,14.5v-2c0-1.27-.67-2.38-1.69-2.99h0c-.49-.32-.81-.88-.81-1.51,0-.63,.32-1.18,.81-1.51h0c1.01-.61,1.69-1.73,1.69-2.99V1.5" fill="none" stroke="#2d3741" stroke-linecap="square" stroke-linejoin="round" stroke-width="1.2"/><path d="M12.5,14c-1.11-1.24-2.71-3.5-4.5-3.5s-3.39,2.26-4.5,3.5" fill="none" stroke="#2d3741" stroke-linecap="square" stroke-linejoin="round" stroke-width="1.2"/></svg>