<?xml version="1.0" encoding="UTF-8"?><svg  xmlns="http://www.w3.org/2000/svg" viewBox="0 0 48 48"><rect x="3.5" y="5.5" width="41" height="39" rx="2" ry="2" fill="none" stroke="#2d3741" stroke-linecap="square" stroke-linejoin="round" stroke-width="1.2"/><line x1="8.5" y1="3.5" x2="8.5" y2="7.5" fill="none" stroke="#2d3741" stroke-linecap="square" stroke-linejoin="round" stroke-width="1.2"/><line x1="12.5" y1="3.5" x2="12.5" y2="7.5" fill="none" stroke="#2d3741" stroke-linecap="square" stroke-linejoin="round" stroke-width="1.2"/><line x1="35.5" y1="3.5" x2="35.5" y2="7.5" fill="none" stroke="#2d3741" stroke-linecap="square" stroke-linejoin="round" stroke-width="1.2"/><line x1="39.5" y1="3.5" x2="39.5" y2="7.5" fill="none" stroke="#2d3741" stroke-linecap="square" stroke-linejoin="round" stroke-width="1.2"/><rect x="7.5" y="16.5" width="6" height="6" rx="1" ry="1" fill="none" stroke="#2d3741" stroke-linecap="square" stroke-linejoin="round" stroke-width="1.2"/><rect x="7.5" y="25.5" width="6" height="6" rx="1" ry="1" fill="none" stroke="#2d3741" stroke-linecap="square" stroke-linejoin="round" stroke-width="1.2"/><rect x="7.5" y="34.5" width="6" height="6" rx="1" ry="1" fill="none" stroke="#2d3741" stroke-linecap="square" stroke-linejoin="round" stroke-width="1.2"/><rect x="16.5" y="16.5" width="6" height="6" rx="1" ry="1" fill="none" stroke="#2d3741" stroke-linecap="square" stroke-linejoin="round" stroke-width="1.2"/><rect x="16.5" y="25.5" width="6" height="6" rx="1" ry="1" fill="none" stroke="#2d3741" stroke-linecap="square" stroke-linejoin="round" stroke-width="1.2"/><rect x="16.5" y="34.5" width="6" height="6" rx="1" ry="1" fill="none" stroke="#2d3741" stroke-linecap="square" stroke-linejoin="round" stroke-width="1.2"/><rect x="25.5" y="16.5" width="6" height="6" rx="1" ry="1" fill="none" stroke="#2d3741" stroke-linecap="square" stroke-linejoin="round" stroke-width="1.2"/><rect x="25.5" y="25.5" width="6" height="6" rx="1" ry="1" fill="none" stroke="#2d3741" stroke-linecap="square" stroke-linejoin="round" stroke-width="1.2"/><rect x="25.5" y="34.5" width="6" height="6" rx="1" ry="1" fill="none" stroke="#2d3741" stroke-linecap="square" stroke-linejoin="round" stroke-width="1.2"/><rect x="34.5" y="16.5" width="6" height="6" rx="1" ry="1" fill="none" stroke="#2d3741" stroke-linecap="square" stroke-linejoin="round" stroke-width="1.2"/><rect x="34.5" y="25.5" width="6" height="6" rx="1" ry="1" fill="none" stroke="#2d3741" stroke-linecap="square" stroke-linejoin="round" stroke-width="1.2"/><rect x="34.5" y="34.5" width="6" height="6" rx="1" ry="1" fill="none" stroke="#2d3741" stroke-linecap="square" stroke-linejoin="round" stroke-width="1.2"/></svg>