<?xml version="1.0" encoding="UTF-8"?><svg id="stroke" xmlns="http://www.w3.org/2000/svg" viewBox="0 0 48 48"><path d="m6.5,33.5h-2c-1.1,0-2-.9-2-2V4.5c0-1.1.9-2,2-2h35c1.1,0,2,.9,2,2v10" fill="none" stroke="#2d3741" stroke-linecap="square" stroke-linejoin="round" stroke-width="1.2"/><rect x="6.5" y="14.5" width="39" height="31" rx="2" ry="2" fill="none" stroke="#2d3741" stroke-linecap="round" stroke-linejoin="round" stroke-width="1.2"/><line x1="37.5" y1="5.5" x2="38.5" y2="5.5" fill="none" stroke="#2d3741" stroke-linecap="square" stroke-linejoin="round" stroke-width="1.2"/><line x1="33.5" y1="5.5" x2="34.5" y2="5.5" fill="none" stroke="#2d3741" stroke-linecap="square" stroke-linejoin="round" stroke-width="1.2"/><line x1="41.5" y1="17.5" x2="42.5" y2="17.5" fill="none" stroke="#2d3741" stroke-linecap="square" stroke-linejoin="round" stroke-width="1.2"/><line x1="37.5" y1="17.5" x2="38.5" y2="17.5" fill="none" stroke="#2d3741" stroke-linecap="square" stroke-linejoin="round" stroke-width="1.2"/><path d="m10.5,24.5l2,17,5-12,12,8s8.08-6.69,10-10l2,14-12-4-17,4" fill="none" stroke="#2d3741" stroke-linecap="round" stroke-linejoin="round" stroke-width="1.2"/><polyline points="17.5 29.5 31.5 19.5 10.5 24.5 17.5 29.5 39.5 27.5 31.5 19.5" fill="none" stroke="#2d3741" stroke-linecap="round" stroke-linejoin="round" stroke-width="1.2"/><polyline points="8.5 14.5 8.5 10.5 12.5 10.5 12.5 14.5" fill="none" stroke="#2d3741" stroke-linecap="round" stroke-linejoin="round" stroke-width="1.2"/><polyline points="16.5 14.5 16.5 7.5 20.5 7.5 20.5 14.5" fill="none" stroke="#2d3741" stroke-linecap="round" stroke-linejoin="round" stroke-width="1.2"/><polyline points="24.5 14.5 24.5 11.5 28.5 11.5 28.5 14.5" fill="none" stroke="#2d3741" stroke-linecap="round" stroke-linejoin="round" stroke-width="1.2"/><polyline points="32.5 14.5 32.5 9.5 36.5 9.5 36.5 14.5" fill="none" stroke="#2d3741" stroke-linecap="round" stroke-linejoin="round" stroke-width="1.2"/></svg>