<?xml version="1.0" encoding="utf-8"?>
<!-- Generator: Adobe Illustrator 27.4.1, SVG Export Plug-In . SVG Version: 6.00 Build 0)  -->
<svg version="1.1" id="Layer_1" xmlns="http://www.w3.org/2000/svg" xmlns:xlink="http://www.w3.org/1999/xlink" x="0px" y="0px"
	 viewBox="0 0 16 16" style="enable-background:new 0 0 16 16;" xml:space="preserve">
<style type="text/css">
	.st0{fill:#FFFFFF;}
	.st1{fill:#12161A;}
</style>
<g>
	<path class="st0" d="M15,8c0,1.4-0.4,2.7-1.2,3.9s-1.9,2.1-3.1,2.6s-2.7,0.7-4,0.4S4,13.9,3.1,12.9c-1-1-1.6-2.2-1.9-3.6
		C0.9,8,1,6.6,1.5,5.3C2.1,4.1,3,3,4.1,2.2S6.6,1,8,1c1.9,0,3.6,0.7,4.9,2.1S15,6.1,15,8L15,8z"/>
	<path class="st1" d="M9.4,8l1.4-1.4c0.2-0.2,0.3-0.4,0.3-0.7S11,5.4,10.8,5.2c-0.2-0.2-0.4-0.3-0.7-0.3S9.6,5,9.4,5.2L8,6.6
		L6.6,5.2C6.4,5,6.2,4.9,5.9,4.9S5.4,5,5.2,5.2C5,5.4,4.9,5.6,4.9,5.9S5,6.4,5.2,6.6L6.6,8L5.2,9.4C5.1,9.5,5,9.6,5,9.7
		S4.9,10,4.9,10.1s0,0.3,0.1,0.4s0.1,0.2,0.2,0.3c0.1,0.1,0.2,0.2,0.3,0.2c0.1,0.1,0.2,0.1,0.4,0.1c0.1,0,0.3,0,0.4-0.1
		c0.1-0.1,0.2-0.1,0.3-0.2L8,9.4l1.4,1.4c0.1,0.1,0.2,0.2,0.3,0.2c0.1,0.1,0.2,0.1,0.4,0.1c0.1,0,0.3,0,0.4-0.1
		c0.1-0.1,0.2-0.1,0.3-0.2c0.1-0.1,0.2-0.2,0.2-0.3c0.1-0.1,0.1-0.2,0.1-0.4s0-0.3-0.1-0.4s-0.1-0.2-0.2-0.3L9.4,8z"/>
</g>
</svg>
