<?xml version="1.0" encoding="UTF-8"?><svg id="stroke" xmlns="http://www.w3.org/2000/svg" viewBox="0 0 48 48"><path d="m45.5,32.79v-3.14c0-.56-.38-1.05-.92-1.18l-3.16-.79c-.14-.37-.3-.73-.49-1.08l1.56-2.6c.29-.48.21-1.09-.18-1.49l-2.22-2.22c-.4-.4-1.01-.47-1.49-.18l-2.79,1.67c-.36-.16-.73-.31-1.12-.43l-.73-2.93c-.14-.54-.62-.92-1.18-.92h-3.14c-.56,0-1.05.38-1.18.92l-.79,3.16c-.37.14-.73.3-1.08.49l-2.6-1.56c-.48-.29-1.09-.21-1.49.18l-2.22,2.22c-.4.4-.47,1.01-.18,1.49l1.67,2.79c-.16.36-.31.73-.43,1.12l-2.93.73c-.54.14-.92.62-.92,1.18v3.14c0,.56.38,1.05.92,1.18l3.16.79c.14.37.3.73.49,1.08l-1.56,2.6c-.29.48-.21,1.09.18,1.49l2.22,2.22c.4.4,1.01.47,1.49.18l2.79-1.67c.36.16.73.31,1.12.43l.73,2.93c.14.54.62.92,1.18.92h3.14c.56,0,1.05-.38,1.18-.92l.79-3.16c.37-.14.73-.3,1.08-.49l2.6,1.56c.48.29,1.09.21,1.49-.18l2.22-2.22c.4-.4.47-1.01.18-1.49l-1.67-2.79c.16-.36.31-.73.43-1.12l2.93-.73c.54-.14.92-.62.92-1.18Zm-9.12-1.29c0,2.7-2.19,4.88-4.88,4.88s-4.88-2.19-4.88-4.88,2.19-4.88,4.88-4.88,4.88,2.19,4.88,4.88Z" fill="none" stroke="#2d3741" stroke-linecap="round" stroke-linejoin="round" stroke-width="1.2"/><path d="m5.5,25.5c-1.66,0-3-1.34-3-3V5.5c0-1.66,1.34-3,3-3h17c1.66,0,3,1.34,3,3" fill="none" stroke="#2d3741" stroke-linecap="round" stroke-linejoin="round" stroke-width="1.2"/><path d="m8.5,28.5c-1.66,0-3-1.34-3-3V8.5c0-1.66,1.34-3,3-3h17c1.66,0,3,1.34,3,3" fill="none" stroke="#2d3741" stroke-linecap="round" stroke-linejoin="round" stroke-width="1.2"/><path d="m17.5,31.5h-6c-1.66,0-3-1.34-3-3V11.5c0-1.66,1.34-3,3-3h17c1.66,0,3,1.34,3,3v6" fill="none" stroke="#2d3741" stroke-linecap="round" stroke-linejoin="round" stroke-width="1.2"/><path d="m31.5,26.62v1.88c0,1.66-1.34,3-3,3h-1.88" fill="none" stroke="#2d3741" stroke-linecap="round" stroke-linejoin="round" stroke-width="1.2"/></svg>