<?xml version="1.0" encoding="UTF-8"?><svg  xmlns="http://www.w3.org/2000/svg" viewBox="0 0 16 16"><path d="M14.5,8.6v-1.46c0-.26-.18-.49-.43-.55l-1.47-.37c-.07-.17-.14-.34-.23-.5l.72-1.21c.13-.22,.1-.51-.08-.69l-1.03-1.03c-.18-.18-.47-.22-.69-.09l-1.29,.78c-.17-.07-.34-.14-.52-.2l-.34-1.36c-.06-.25-.29-.43-.55-.43h-1.46c-.26,0-.49,.18-.55,.43l-.37,1.47c-.17,.07-.34,.14-.5,.23l-1.21-.72c-.22-.13-.51-.1-.69,.09l-1.03,1.03c-.18,.18-.22,.47-.09,.69l.78,1.29c-.07,.17-.14,.34-.2,.52l-1.36,.34c-.25,.06-.43,.29-.43,.55v1.46c0,.26,.18,.49,.43,.55l1.47,.37c.07,.17,.14,.34,.23,.5l-.72,1.21c-.13,.22-.1,.51,.09,.69l1.03,1.03c.18,.18,.47,.22,.69,.09l1.29-.78c.17,.07,.34,.14,.52,.2l.34,1.36c.06,.25,.29,.43,.55,.43h1.46c.26,0,.49-.18,.55-.43l.37-1.47c.17-.07,.34-.14,.5-.23l1.21,.72c.22,.13,.51,.1,.69-.08l1.03-1.03c.18-.18,.22-.47,.09-.69l-.78-1.29c.07-.17,.14-.34,.2-.52l1.36-.34c.25-.06,.43-.29,.43-.55Zm-4-.6c0,1.38-1.12,2.5-2.5,2.5s-2.5-1.12-2.5-2.5,1.12-2.5,2.5-2.5,2.5,1.12,2.5,2.5Z" fill="none" stroke="#2d3741" stroke-linecap="square" stroke-miterlimit="10" stroke-width="1.2"/></svg>