<?xml version="1.0" encoding="UTF-8"?><svg id="stroke" xmlns="http://www.w3.org/2000/svg" viewBox="0 0 48 48"><line x1="19" y1="38.5" x2="29" y2="38.5" fill="none" stroke="#2d3741" stroke-linecap="round" stroke-linejoin="round" stroke-width="1.2"/><line x1="19" y1="40.5" x2="29" y2="40.5" fill="none" stroke="#2d3741" stroke-linecap="round" stroke-linejoin="round" stroke-width="1.2"/><path d="m20.45,42.5c-.48,0-.78.54-.5.93.91,1.25,2.38,2.07,4.05,2.07s3.14-.82,4.05-2.07c.28-.39-.03-.93-.5-.93h-7.09Z" fill="none" stroke="#2d3741" stroke-linecap="round" stroke-linejoin="round" stroke-width="1.2"/><path d="m20.75,7.9c-5.73,1.4-9.75,6.71-9.75,12.61,0,2.16.53,4.21,1.63,6.26.01.02.04.08.09.17.1.18.21.37.32.55h0c.24.37.58.88,1.02,1.44.23.3.49.61.75.94.87,1.08,1.95,2.42,2.24,3.17.39,1.02.6,1.99.72,2.64.08.48.5.82.98.82h10.49c.48,0,.9-.34.98-.82.12-.65.33-1.63.72-2.64.29-.76,1.37-2.1,2.24-3.17.26-.33.52-.64.75-.94.44-.56.78-1.07,1.02-1.45h0c.11-.18.22-.37.32-.55.05-.08.08-.14.09-.17,1.09-2.05,1.63-4.1,1.63-6.26,0-8.23-7.68-14.7-16.25-12.6Z" fill="none" stroke="#2d3741" stroke-linecap="round" stroke-linejoin="round" stroke-width="1.2"/><line x1="6" y1="20.5" x2="8" y2="20.5" fill="none" stroke="#2d3741" stroke-linecap="round" stroke-linejoin="round" stroke-width="1.2"/><line x1="40" y1="20.5" x2="42" y2="20.5" fill="none" stroke="#2d3741" stroke-linecap="round" stroke-linejoin="round" stroke-width="1.2"/><line x1="11.27" y1="33.23" x2="12.69" y2="31.81" fill="none" stroke="#2d3741" stroke-linecap="round" stroke-linejoin="round" stroke-width="1.2"/><line x1="35.31" y1="9.19" x2="36.73" y2="7.77" fill="none" stroke="#2d3741" stroke-linecap="round" stroke-linejoin="round" stroke-width="1.2"/><line x1="36.73" y1="33.23" x2="35.31" y2="31.81" fill="none" stroke="#2d3741" stroke-linecap="round" stroke-linejoin="round" stroke-width="1.2"/><line x1="12.69" y1="9.19" x2="11.27" y2="7.77" fill="none" stroke="#2d3741" stroke-linecap="round" stroke-linejoin="round" stroke-width="1.2"/><line x1="24" y1="4.5" x2="24" y2="2.5" fill="none" stroke="#2d3741" stroke-linecap="round" stroke-linejoin="round" stroke-width="1.2"/><path d="m18.8,19.7c0-3.24,2.96-5.79,6.32-5.09,1.97.41,3.56,2,3.97,3.97.57,2.73-1,5.19-3.33,6.02-1.04.37-1.75,1.35-1.75,2.45" fill="none" stroke="#2d3741" stroke-linecap="round" stroke-linejoin="round" stroke-width="1.2"/><circle cx="24" cy="30.94" r=".4" fill="none" stroke="#2d3741" stroke-linecap="round" stroke-linejoin="round" stroke-width="1.2"/></svg>