<?xml version="1.0" encoding="UTF-8"?><svg  xmlns="http://www.w3.org/2000/svg" viewBox="0 0 48 48"><rect x="2.5" y="2.5" width="31" height="12" rx="2" ry="2" fill="none" stroke="#2d3741" stroke-linecap="round" stroke-linejoin="round" stroke-width="1.2"/><rect x="2.5" y="14.5" width="31" height="12" rx="2" ry="2" fill="none" stroke="#2d3741" stroke-linecap="round" stroke-linejoin="round" stroke-width="1.2"/><path d="m14.5,38.5H4.5c-1.1,0-2-.9-2-2v-8c0-1.1.9-2,2-2h27c1.1,0,2,.9,2,2v8c0,1.1-.9,2-2,2h-9" fill="none" stroke="#2d3741" stroke-linecap="round" stroke-linejoin="round" stroke-width="1.2"/><line x1="16.5" y1="21.5" x2="42.5" y2="21.5" fill="none" stroke="#2d3741" stroke-linecap="square" stroke-linejoin="round" stroke-width="1.2"/><polygon points="35.65 45.5 23.35 45.5 29.5 41.38 35.65 45.5" fill="none" stroke="#2d3741" stroke-linecap="round" stroke-linejoin="round" stroke-width="1.2"/><line x1="29.5" y1="19.5" x2="29.5" y2="41.5" fill="none" stroke="#2d3741" stroke-linecap="square" stroke-linejoin="round" stroke-width="1.2"/><line x1="35.5" y1="35.5" x2="45.5" y2="35.5" fill="none" stroke="#2d3741" stroke-linecap="round" stroke-linejoin="round" stroke-width="1.2"/><path d="m35.5,35.41l5-13.91,5,14c0,2.76-2.24,5-5,5s-5-2.24-5-5" fill="none" stroke="#2d3741" stroke-linecap="round" stroke-linejoin="round" stroke-width="1.2"/><line x1="13.5" y1="35.5" x2="23.5" y2="35.5" fill="none" stroke="#2d3741" stroke-linecap="round" stroke-linejoin="round" stroke-width="1.2"/><path d="m13.5,35.41l5-13.91,5,14c0,2.76-2.24,5-5,5s-5-2.24-5-5" fill="none" stroke="#2d3741" stroke-linecap="round" stroke-linejoin="round" stroke-width="1.2"/><line x1="5.5" y1="5.5" x2="6.5" y2="5.5" fill="none" stroke="#2d3741" stroke-linecap="square" stroke-linejoin="round" stroke-width="1.2"/><line x1="8.5" y1="5.5" x2="9.5" y2="5.5" fill="none" stroke="#2d3741" stroke-linecap="square" stroke-linejoin="round" stroke-width="1.2"/><line x1="11.5" y1="5.5" x2="12.5" y2="5.5" fill="none" stroke="#2d3741" stroke-linecap="square" stroke-linejoin="round" stroke-width="1.2"/><line x1="5.5" y1="17.5" x2="6.5" y2="17.5" fill="none" stroke="#2d3741" stroke-linecap="square" stroke-linejoin="round" stroke-width="1.2"/><line x1="8.5" y1="17.5" x2="9.5" y2="17.5" fill="none" stroke="#2d3741" stroke-linecap="square" stroke-linejoin="round" stroke-width="1.2"/><line x1="11.5" y1="17.5" x2="12.5" y2="17.5" fill="none" stroke="#2d3741" stroke-linecap="square" stroke-linejoin="round" stroke-width="1.2"/><line x1="5.5" y1="29.5" x2="6.5" y2="29.5" fill="none" stroke="#2d3741" stroke-linecap="square" stroke-linejoin="round" stroke-width="1.2"/><line x1="8.5" y1="29.5" x2="9.5" y2="29.5" fill="none" stroke="#2d3741" stroke-linecap="square" stroke-linejoin="round" stroke-width="1.2"/><line x1="11.5" y1="29.5" x2="12.5" y2="29.5" fill="none" stroke="#2d3741" stroke-linecap="square" stroke-linejoin="round" stroke-width="1.2"/></svg>