<?xml version="1.0" encoding="UTF-8"?><svg id="stroke" xmlns="http://www.w3.org/2000/svg" viewBox="0 0 48 48"><path d="m22.5,28.5h-6v8l-8-8h-3c-1.66,0-3-1.34-3-3V5.5c0-1.66,1.34-3,3-3h29c1.66,0,3,1.34,3,3v19" fill="none" stroke="#2d3741" stroke-linecap="square" stroke-linejoin="round" stroke-width="1.2"/><line x1="10.5" y1="10.5" x2="29.5" y2="10.5" fill="none" stroke="#2d3741" stroke-linecap="square" stroke-linejoin="round" stroke-width="1.2"/><line x1="10.5" y1="15.5" x2="29.5" y2="15.5" fill="none" stroke="#2d3741" stroke-linecap="square" stroke-linejoin="round" stroke-width="1.2"/><line x1="10.5" y1="20.5" x2="23.5" y2="20.5" fill="none" stroke="#2d3741" stroke-linecap="square" stroke-linejoin="round" stroke-width="1.2"/><path d="m25.5,40.5c-1.66,0-3-1.34-3-3v-10c0-1.66,1.34-3,3-3h17c1.66,0,3,1.34,3,3v10c0,1.66-1.34,3-3,3h-2s-5,5-5,5v-5s-10,0-10,0Z" fill="none" stroke="#2d3741" stroke-linecap="square" stroke-linejoin="round" stroke-width="1.2"/><line x1="28.5" y1="30.5" x2="39.5" y2="30.5" fill="none" stroke="#2d3741" stroke-linecap="square" stroke-linejoin="round" stroke-width="1.2"/><line x1="28.5" y1="34.5" x2="35.5" y2="34.5" fill="none" stroke="#2d3741" stroke-linecap="square" stroke-linejoin="round" stroke-width="1.2"/></svg>