<?xml version="1.0" encoding="UTF-8"?><svg id="stroke" xmlns="http://www.w3.org/2000/svg" viewBox="0 0 16 16"><path d="M11.5,11.5l-3,3v-3H3.5c-1.1,0-2-.9-2-2V3.5c0-1.1,.9-2,2-2H12.5c1.1,0,2,.9,2,2v6c0,1.1-.9,2-2,2h-1Z" fill="none" stroke="#2d3741" stroke-linecap="square" stroke-linejoin="round" stroke-width="1.2"/><path d="M5.5,8.5v-3c0-.55-.45-1-1-1h0" fill="none" stroke="#2d3741" stroke-linecap="square" stroke-linejoin="round" stroke-width="1.2"/><line x1="7.5" y1="3.5" x2="7.5" y2="8.5" fill="none" stroke="#2d3741" stroke-linecap="square" stroke-linejoin="round" stroke-width="1.2"/><path d="M7.5,4.5h1c.55,0,1,.45,1,1v2c0,.55-.45,1-1,1h-1V4.5h0Z" fill="none" stroke="#2d3741" stroke-linecap="square" stroke-linejoin="round" stroke-width="1.2"/><path d="M12.5,8.5c-.55,0-1-.45-1-1v-2c0-.55,.45-1,1-1" fill="none" stroke="#2d3741" stroke-linecap="square" stroke-linejoin="round" stroke-width="1.2"/><path d="M3.5,6.5h1c.55,0,1,.45,1,1h0c0,.55-.45,1-1,1h-1v-2h0Z" transform="translate(9 15) rotate(-180)" fill="none" stroke="#2d3741" stroke-linecap="square" stroke-linejoin="round" stroke-width="1.2"/></svg>