<?xml version="1.0" encoding="UTF-8"?><svg  xmlns="http://www.w3.org/2000/svg" viewBox="0 0 16 16"><rect x="5.5" y="5.5" width="9" height="9" rx="1" ry="1" fill="none" stroke="#2d3741" stroke-linecap="square" stroke-miterlimit="10" stroke-width="1.2"/><path d="m5.5,12.5h-1c-.55,0-1-.45-1-1v-7c0-.55.45-1,1-1h7c.55,0,1,.45,1,1v1" fill="none" stroke="#2d3741" stroke-linecap="square" stroke-miterlimit="10" stroke-width="1.2"/><path d="m3.5,10.5h-1c-.55,0-1-.45-1-1V2.5c0-.55.45-1,1-1h7c.55,0,1,.45,1,1v1" fill="none" stroke="#2d3741" stroke-linecap="square" stroke-miterlimit="10" stroke-width="1.2"/><line x1="7.5" y1="12.5" x2="8.5" y2="12.5" fill="none" stroke="#2d3741" stroke-linecap="square" stroke-linejoin="round" stroke-width="1.2"/><line x1="7.5" y1="7.5" x2="8.5" y2="7.5" fill="none" stroke="#2d3741" stroke-linecap="square" stroke-linejoin="round" stroke-width="1.2"/><line x1="11.5" y1="12.5" x2="12.5" y2="12.5" fill="none" stroke="#2d3741" stroke-linecap="square" stroke-linejoin="round" stroke-width="1.2"/><line x1="7.5" y1="10" x2="8.5" y2="10" fill="none" stroke="#2d3741" stroke-linecap="square" stroke-linejoin="round" stroke-width="1.2"/><line x1="11.5" y1="10" x2="12.5" y2="10" fill="none" stroke="#2d3741" stroke-linecap="square" stroke-linejoin="round" stroke-width="1.2"/><line x1="11.5" y1="7.5" x2="12.5" y2="7.5" fill="none" stroke="#2d3741" stroke-linecap="square" stroke-linejoin="round" stroke-width="1.2"/></svg>