<?xml version="1.0" encoding="UTF-8"?><svg id="stroke" xmlns="http://www.w3.org/2000/svg" viewBox="0 0 16 16"><path d="M14.05,12c-.1,.49-.25,.89-.47,1.22-.23,.35-.53,.63-.92,.84-.53,.29-1.11,.44-1.73,.44-.46,0-.95-.08-1.46-.25-1.03-.33-2.01-.96-2.76-1.46-.72-.49-1.38-1.1-2.02-1.87-.68-.74-1.2-1.47-1.59-2.25-.41-.8-.9-1.86-1.09-2.93-.22-1.23-.02-2.28,.61-3.14,.26-.36,.57-.62,.95-.8,.36-.17,.77-.27,1.27-.31,.29-.02,.68,.06,.91,.55,.18,.39,.38,.79,.56,1.18,.13,.28,.27,.56,.41,.85,.09,.18,.16,.37,.21,.55,.11,.36,.01,.65-.3,.9-.4,.32-.79,.63-1.17,.95-.01,.01-.04,.04-.06,.06,0,.02,.02,.06,.04,.12,.38,.94,.85,1.71,1.42,2.36h0c.56,.66,1.27,1.22,2.15,1.73,.06,.03,.09,.05,.11,.06,.02-.02,.05-.04,.06-.05,.36-.33,.72-.68,1.09-1.03,.29-.28,.59-.34,.93-.18,.17,.08,.35,.17,.51,.28,.26,.17,.53,.34,.79,.51,.36,.24,.73,.48,1.1,.71,.46,.29,.48,.69,.43,.98Z" fill="none" stroke="#2d3741" stroke-linecap="square" stroke-linejoin="round" stroke-width="1.2"/></svg>