<?xml version="1.0" encoding="UTF-8"?><svg id="stroke" xmlns="http://www.w3.org/2000/svg" viewBox="0 0 48 48"><path d="m7.5,29.5l3.8.82c.34.05.68.07,1.02.07h10.64c1.03,0,1.91-.72,2.11-1.73l2.73-13.66c.27-1.33-.74-2.56-2.09-2.58l-6.23.02c-.24,0-.42-.24-.34-.47l1.94-5.93c.45-1.27-.12-2.67-1.32-3.27h0c-1.24-.62-2.76-.18-3.47,1.01l-6.01,10.02c-.88,1.46-1.35,2.74-2.77,3.69" fill="none" stroke="#2d3741" stroke-linecap="round" stroke-linejoin="round" stroke-width="1.2"/><rect x="2.5" y="16.5" width="5" height="14" rx="1" ry="1" fill="none" stroke="#2d3741" stroke-linecap="round" stroke-linejoin="round" stroke-width="1.2"/><rect x="40.5" y="17.5" width="5" height="14" rx="1" ry="1" transform="translate(86 49) rotate(-180)" fill="none" stroke="#2d3741" stroke-linecap="round" stroke-linejoin="round" stroke-width="1.2"/><path d="m20.72,30.39l-.52,2.61c-.27,1.33.74,2.56,2.09,2.58l6.23-.02c.24,0,.42.24.34.47l-1.94,5.93c-.45,1.27.12,2.67,1.32,3.27h0c1.24.62,2.76.18,3.47-1.01l6.01-10.02c.88-1.46,1.35-2.74,2.77-3.69" fill="none" stroke="#2d3741" stroke-linecap="round" stroke-linejoin="round" stroke-width="1.2"/><path d="m40.5,18.5l-3.8-.82c-.34-.05-.68-.07-1.02-.07h-8.4" fill="none" stroke="#2d3741" stroke-linecap="round" stroke-linejoin="round" stroke-width="1.2"/></svg>