<?xml version="1.0" encoding="UTF-8"?><svg  xmlns="http://www.w3.org/2000/svg" viewBox="0 0 48 48"><rect x="2.5" y="2.5" width="43" height="4" fill="none" stroke="#2d3741" stroke-linejoin="round" stroke-width="1.2"/><polyline points="4.5 6.5 4.5 34.5 43.5 34.5 43.5 6.5" fill="none" stroke="#2d3741" stroke-linejoin="round" stroke-width="1.2"/><line x1="24" y1="44.5" x2="24" y2="34.5" fill="none" stroke="#2d3741" stroke-linecap="square" stroke-miterlimit="10" stroke-width="1.2"/><polyline points="17 45.5 24 39.5 31 45.5" fill="none" stroke="#2d3741" stroke-linecap="square" stroke-miterlimit="10" stroke-width="1.2"/><rect x="8.5" y="11.5" width="8" height="4" rx=".5" ry=".5" fill="none" stroke="#2d3741" stroke-linecap="square" stroke-linejoin="round" stroke-width="1.2"/><rect x="19.5" y="11.5" width="8" height="4" rx=".5" ry=".5" fill="none" stroke="#2d3741" stroke-linecap="square" stroke-linejoin="round" stroke-width="1.2"/><rect x="19.5" y="18.5" width="8" height="4" rx=".5" ry=".5" fill="none" stroke="#2d3741" stroke-linecap="square" stroke-linejoin="round" stroke-width="1.2"/><rect x="8.5" y="18.5" width="8" height="4" rx=".5" ry=".5" fill="none" stroke="#2d3741" stroke-linecap="square" stroke-linejoin="round" stroke-width="1.2"/><rect x="8.5" y="25.5" width="8" height="4" rx=".5" ry=".5" fill="none" stroke="#2d3741" stroke-linecap="square" stroke-linejoin="round" stroke-width="1.2"/><line x1="12.5" y1="15.5" x2="12.5" y2="18.5" fill="none" stroke="#2d3741" stroke-linecap="square" stroke-linejoin="round" stroke-width="1.2"/><line x1="23.5" y1="15.5" x2="23.5" y2="18.5" fill="none" stroke="#2d3741" stroke-linecap="square" stroke-linejoin="round" stroke-width="1.2"/><line x1="12.5" y1="22.5" x2="12.5" y2="25.5" fill="none" stroke="#2d3741" stroke-linecap="square" stroke-linejoin="round" stroke-width="1.2"/><line x1="16.5" y1="13.5" x2="19.5" y2="13.5" fill="none" stroke="#2d3741" stroke-linecap="square" stroke-linejoin="round" stroke-width="1.2"/><line x1="31.5" y1="11.5" x2="39.5" y2="11.5" fill="none" stroke="#2d3741" stroke-linecap="square" stroke-linejoin="round" stroke-width="1.2"/><line x1="31.5" y1="14.5" x2="39.5" y2="14.5" fill="none" stroke="#2d3741" stroke-linecap="square" stroke-linejoin="round" stroke-width="1.2"/><line x1="31.5" y1="17.5" x2="39.5" y2="17.5" fill="none" stroke="#2d3741" stroke-linecap="square" stroke-linejoin="round" stroke-width="1.2"/><line x1="31.5" y1="20.5" x2="39.5" y2="20.5" fill="none" stroke="#2d3741" stroke-linecap="square" stroke-linejoin="round" stroke-width="1.2"/><line x1="31.5" y1="26.5" x2="39.5" y2="26.5" fill="none" stroke="#2d3741" stroke-linecap="square" stroke-linejoin="round" stroke-width="1.2"/><line x1="31.5" y1="29.5" x2="39.5" y2="29.5" fill="none" stroke="#2d3741" stroke-linecap="square" stroke-linejoin="round" stroke-width="1.2"/></svg>